<mxfile host="app.diagrams.net" agent="Mozilla/5.0 (Windows NT 10.0; Win64; x64; rv:139.0) Gecko/20100101 Firefox/139.0" version="27.1.6">
  <diagram id="C5RBs43oDa-KdzZeNtuy" name="Page-1">
    <mxGraphModel dx="837" dy="1336" grid="1" gridSize="10" guides="1" tooltips="1" connect="1" arrows="1" fold="1" page="1" pageScale="1" pageWidth="1169" pageHeight="827" background="#ffffff" math="0" shadow="0">
      <root>
        <mxCell id="WIyWlLk6GJQsqaUBKTNV-0" />
        <mxCell id="WIyWlLk6GJQsqaUBKTNV-1" parent="WIyWlLk6GJQsqaUBKTNV-0" />
        <mxCell id="JrVqD8_4iXmEu2Tj7kiI-0" value="Student" style="swimlane;fontStyle=0;childLayout=stackLayout;horizontal=1;startSize=30;horizontalStack=0;resizeParent=1;resizeParentMax=0;resizeLast=0;collapsible=1;marginBottom=0;whiteSpace=wrap;html=1;" parent="WIyWlLk6GJQsqaUBKTNV-1" vertex="1">
          <mxGeometry x="400" y="10" width="210" height="388" as="geometry" />
        </mxCell>
        <mxCell id="JrVqD8_4iXmEu2Tj7kiI-1" value="int StudentID&amp;nbsp;" style="text;strokeColor=none;fillColor=none;align=left;verticalAlign=middle;spacingLeft=4;spacingRight=4;overflow=hidden;points=[[0,0.5],[1,0.5]];portConstraint=eastwest;rotatable=0;whiteSpace=wrap;html=1;" parent="JrVqD8_4iXmEu2Tj7kiI-0" vertex="1">
          <mxGeometry y="30" width="210" height="30" as="geometry" />
        </mxCell>
        <mxCell id="JrVqD8_4iXmEu2Tj7kiI-2" value="string Ime" style="text;strokeColor=none;fillColor=none;align=left;verticalAlign=middle;spacingLeft=4;spacingRight=4;overflow=hidden;points=[[0,0.5],[1,0.5]];portConstraint=eastwest;rotatable=0;whiteSpace=wrap;html=1;" parent="JrVqD8_4iXmEu2Tj7kiI-0" vertex="1">
          <mxGeometry y="60" width="210" height="30" as="geometry" />
        </mxCell>
        <mxCell id="JrVqD8_4iXmEu2Tj7kiI-3" value="string Prezime" style="text;strokeColor=none;fillColor=none;align=left;verticalAlign=middle;spacingLeft=4;spacingRight=4;overflow=hidden;points=[[0,0.5],[1,0.5]];portConstraint=eastwest;rotatable=0;whiteSpace=wrap;html=1;" parent="JrVqD8_4iXmEu2Tj7kiI-0" vertex="1">
          <mxGeometry y="90" width="210" height="20" as="geometry" />
        </mxCell>
        <mxCell id="9InwrJi6JerVY7e5sxzL-1" value="string Telefon" style="text;strokeColor=none;fillColor=none;align=left;verticalAlign=middle;spacingLeft=4;spacingRight=4;overflow=hidden;points=[[0,0.5],[1,0.5]];portConstraint=eastwest;rotatable=0;whiteSpace=wrap;html=1;" vertex="1" parent="JrVqD8_4iXmEu2Tj7kiI-0">
          <mxGeometry y="110" width="210" height="30" as="geometry" />
        </mxCell>
        <mxCell id="JrVqD8_4iXmEu2Tj7kiI-4" value="string Email&amp;nbsp;" style="text;strokeColor=none;fillColor=none;align=left;verticalAlign=middle;spacingLeft=4;spacingRight=4;overflow=hidden;points=[[0,0.5],[1,0.5]];portConstraint=eastwest;rotatable=0;whiteSpace=wrap;html=1;" parent="JrVqD8_4iXmEu2Tj7kiI-0" vertex="1">
          <mxGeometry y="140" width="210" height="30" as="geometry" />
        </mxCell>
        <mxCell id="JrVqD8_4iXmEu2Tj7kiI-6" value="string StatusBlokade" style="text;strokeColor=none;fillColor=none;align=left;verticalAlign=middle;spacingLeft=4;spacingRight=4;overflow=hidden;points=[[0,0.5],[1,0.5]];portConstraint=eastwest;rotatable=0;whiteSpace=wrap;html=1;" parent="JrVqD8_4iXmEu2Tj7kiI-0" vertex="1">
          <mxGeometry y="170" width="210" height="30" as="geometry" />
        </mxCell>
        <mxCell id="8LqMRh5Xvni50Mecn4Er-12" value="" style="line;strokeWidth=1;fillColor=none;align=left;verticalAlign=middle;spacingTop=-1;spacingLeft=3;spacingRight=3;rotatable=0;labelPosition=right;points=[];portConstraint=eastwest;strokeColor=inherit;" parent="JrVqD8_4iXmEu2Tj7kiI-0" vertex="1">
          <mxGeometry y="200" width="210" height="8" as="geometry" />
        </mxCell>
        <mxCell id="8LqMRh5Xvni50Mecn4Er-11" value="prijaviSe()" style="text;strokeColor=none;fillColor=none;align=left;verticalAlign=middle;spacingLeft=4;spacingRight=4;overflow=hidden;points=[[0,0.5],[1,0.5]];portConstraint=eastwest;rotatable=0;whiteSpace=wrap;html=1;" parent="JrVqD8_4iXmEu2Tj7kiI-0" vertex="1">
          <mxGeometry y="208" width="210" height="30" as="geometry" />
        </mxCell>
        <mxCell id="8LqMRh5Xvni50Mecn4Er-15" value="rezervirajKnjigu()" style="text;strokeColor=none;fillColor=none;align=left;verticalAlign=middle;spacingLeft=4;spacingRight=4;overflow=hidden;points=[[0,0.5],[1,0.5]];portConstraint=eastwest;rotatable=0;whiteSpace=wrap;html=1;" parent="JrVqD8_4iXmEu2Tj7kiI-0" vertex="1">
          <mxGeometry y="238" width="210" height="30" as="geometry" />
        </mxCell>
        <mxCell id="8LqMRh5Xvni50Mecn4Er-19" value="pregledPosudbi()" style="text;strokeColor=none;fillColor=none;align=left;verticalAlign=middle;spacingLeft=4;spacingRight=4;overflow=hidden;points=[[0,0.5],[1,0.5]];portConstraint=eastwest;rotatable=0;whiteSpace=wrap;html=1;" parent="JrVqD8_4iXmEu2Tj7kiI-0" vertex="1">
          <mxGeometry y="268" width="210" height="30" as="geometry" />
        </mxCell>
        <mxCell id="8LqMRh5Xvni50Mecn4Er-34" value="produlžiPosudbu()" style="text;strokeColor=none;fillColor=none;align=left;verticalAlign=middle;spacingLeft=4;spacingRight=4;overflow=hidden;points=[[0,0.5],[1,0.5]];portConstraint=eastwest;rotatable=0;whiteSpace=wrap;html=1;" parent="JrVqD8_4iXmEu2Tj7kiI-0" vertex="1">
          <mxGeometry y="298" width="210" height="30" as="geometry" />
        </mxCell>
        <mxCell id="8LqMRh5Xvni50Mecn4Er-20" value="pregledRezervacija()" style="text;strokeColor=none;fillColor=none;align=left;verticalAlign=middle;spacingLeft=4;spacingRight=4;overflow=hidden;points=[[0,0.5],[1,0.5]];portConstraint=eastwest;rotatable=0;whiteSpace=wrap;html=1;" parent="JrVqD8_4iXmEu2Tj7kiI-0" vertex="1">
          <mxGeometry y="328" width="210" height="30" as="geometry" />
        </mxCell>
        <mxCell id="8LqMRh5Xvni50Mecn4Er-16" value="otkažiRezervaciju()" style="text;strokeColor=none;fillColor=none;align=left;verticalAlign=middle;spacingLeft=4;spacingRight=4;overflow=hidden;points=[[0,0.5],[1,0.5]];portConstraint=eastwest;rotatable=0;whiteSpace=wrap;html=1;" parent="JrVqD8_4iXmEu2Tj7kiI-0" vertex="1">
          <mxGeometry y="358" width="210" height="30" as="geometry" />
        </mxCell>
        <mxCell id="JrVqD8_4iXmEu2Tj7kiI-7" value="Knjižničar" style="swimlane;fontStyle=0;childLayout=stackLayout;horizontal=1;startSize=30;horizontalStack=0;resizeParent=1;resizeParentMax=0;resizeLast=0;collapsible=1;marginBottom=0;whiteSpace=wrap;html=1;" parent="WIyWlLk6GJQsqaUBKTNV-1" vertex="1">
          <mxGeometry x="80" y="2" width="210" height="458" as="geometry" />
        </mxCell>
        <mxCell id="JrVqD8_4iXmEu2Tj7kiI-8" value="int KnjižničarID&amp;nbsp;" style="text;strokeColor=none;fillColor=none;align=left;verticalAlign=middle;spacingLeft=4;spacingRight=4;overflow=hidden;points=[[0,0.5],[1,0.5]];portConstraint=eastwest;rotatable=0;whiteSpace=wrap;html=1;" parent="JrVqD8_4iXmEu2Tj7kiI-7" vertex="1">
          <mxGeometry y="30" width="210" height="30" as="geometry" />
        </mxCell>
        <mxCell id="JrVqD8_4iXmEu2Tj7kiI-9" value="string Ime" style="text;strokeColor=none;fillColor=none;align=left;verticalAlign=middle;spacingLeft=4;spacingRight=4;overflow=hidden;points=[[0,0.5],[1,0.5]];portConstraint=eastwest;rotatable=0;whiteSpace=wrap;html=1;" parent="JrVqD8_4iXmEu2Tj7kiI-7" vertex="1">
          <mxGeometry y="60" width="210" height="30" as="geometry" />
        </mxCell>
        <mxCell id="JrVqD8_4iXmEu2Tj7kiI-10" value="string Prezime" style="text;strokeColor=none;fillColor=none;align=left;verticalAlign=middle;spacingLeft=4;spacingRight=4;overflow=hidden;points=[[0,0.5],[1,0.5]];portConstraint=eastwest;rotatable=0;whiteSpace=wrap;html=1;" parent="JrVqD8_4iXmEu2Tj7kiI-7" vertex="1">
          <mxGeometry y="90" width="210" height="30" as="geometry" />
        </mxCell>
        <mxCell id="9InwrJi6JerVY7e5sxzL-0" value="string Telefon" style="text;strokeColor=none;fillColor=none;align=left;verticalAlign=middle;spacingLeft=4;spacingRight=4;overflow=hidden;points=[[0,0.5],[1,0.5]];portConstraint=eastwest;rotatable=0;whiteSpace=wrap;html=1;" vertex="1" parent="JrVqD8_4iXmEu2Tj7kiI-7">
          <mxGeometry y="120" width="210" height="30" as="geometry" />
        </mxCell>
        <mxCell id="JrVqD8_4iXmEu2Tj7kiI-12" value="string Email&amp;nbsp;" style="text;strokeColor=none;fillColor=none;align=left;verticalAlign=middle;spacingLeft=4;spacingRight=4;overflow=hidden;points=[[0,0.5],[1,0.5]];portConstraint=eastwest;rotatable=0;whiteSpace=wrap;html=1;" parent="JrVqD8_4iXmEu2Tj7kiI-7" vertex="1">
          <mxGeometry y="150" width="210" height="30" as="geometry" />
        </mxCell>
        <mxCell id="8LqMRh5Xvni50Mecn4Er-2" value="" style="line;strokeWidth=1;fillColor=none;align=left;verticalAlign=middle;spacingTop=-1;spacingLeft=3;spacingRight=3;rotatable=0;labelPosition=right;points=[];portConstraint=eastwest;strokeColor=inherit;" parent="JrVqD8_4iXmEu2Tj7kiI-7" vertex="1">
          <mxGeometry y="180" width="210" height="8" as="geometry" />
        </mxCell>
        <mxCell id="8LqMRh5Xvni50Mecn4Er-14" value="prijaviSe()" style="text;strokeColor=none;fillColor=none;align=left;verticalAlign=middle;spacingLeft=4;spacingRight=4;overflow=hidden;points=[[0,0.5],[1,0.5]];portConstraint=eastwest;rotatable=0;whiteSpace=wrap;html=1;" parent="JrVqD8_4iXmEu2Tj7kiI-7" vertex="1">
          <mxGeometry y="188" width="210" height="30" as="geometry" />
        </mxCell>
        <mxCell id="8LqMRh5Xvni50Mecn4Er-1" value="&lt;div&gt;dodajKnjigu()&lt;/div&gt;" style="text;strokeColor=none;fillColor=none;align=left;verticalAlign=middle;spacingLeft=4;spacingRight=4;overflow=hidden;points=[[0,0.5],[1,0.5]];portConstraint=eastwest;rotatable=0;whiteSpace=wrap;html=1;" parent="JrVqD8_4iXmEu2Tj7kiI-7" vertex="1">
          <mxGeometry y="218" width="210" height="30" as="geometry" />
        </mxCell>
        <mxCell id="8LqMRh5Xvni50Mecn4Er-4" value="urediKnjigu()" style="text;strokeColor=none;fillColor=none;align=left;verticalAlign=middle;spacingLeft=4;spacingRight=4;overflow=hidden;points=[[0,0.5],[1,0.5]];portConstraint=eastwest;rotatable=0;whiteSpace=wrap;html=1;" parent="JrVqD8_4iXmEu2Tj7kiI-7" vertex="1">
          <mxGeometry y="248" width="210" height="30" as="geometry" />
        </mxCell>
        <mxCell id="8LqMRh5Xvni50Mecn4Er-3" value="izbrisiKnjigu()" style="text;strokeColor=none;fillColor=none;align=left;verticalAlign=middle;spacingLeft=4;spacingRight=4;overflow=hidden;points=[[0,0.5],[1,0.5]];portConstraint=eastwest;rotatable=0;whiteSpace=wrap;html=1;" parent="JrVqD8_4iXmEu2Tj7kiI-7" vertex="1">
          <mxGeometry y="278" width="210" height="30" as="geometry" />
        </mxCell>
        <mxCell id="8LqMRh5Xvni50Mecn4Er-7" value="evidentirajPosudbu()" style="text;strokeColor=none;fillColor=none;align=left;verticalAlign=middle;spacingLeft=4;spacingRight=4;overflow=hidden;points=[[0,0.5],[1,0.5]];portConstraint=eastwest;rotatable=0;whiteSpace=wrap;html=1;" parent="JrVqD8_4iXmEu2Tj7kiI-7" vertex="1">
          <mxGeometry y="308" width="210" height="30" as="geometry" />
        </mxCell>
        <mxCell id="8LqMRh5Xvni50Mecn4Er-13" value="evidentirajRezervaciju()" style="text;strokeColor=none;fillColor=none;align=left;verticalAlign=middle;spacingLeft=4;spacingRight=4;overflow=hidden;points=[[0,0.5],[1,0.5]];portConstraint=eastwest;rotatable=0;whiteSpace=wrap;html=1;" parent="JrVqD8_4iXmEu2Tj7kiI-7" vertex="1">
          <mxGeometry y="338" width="210" height="30" as="geometry" />
        </mxCell>
        <mxCell id="8LqMRh5Xvni50Mecn4Er-9" value="deblokirajStudenta()" style="text;strokeColor=none;fillColor=none;align=left;verticalAlign=middle;spacingLeft=4;spacingRight=4;overflow=hidden;points=[[0,0.5],[1,0.5]];portConstraint=eastwest;rotatable=0;whiteSpace=wrap;html=1;" parent="JrVqD8_4iXmEu2Tj7kiI-7" vertex="1">
          <mxGeometry y="368" width="210" height="30" as="geometry" />
        </mxCell>
        <mxCell id="8LqMRh5Xvni50Mecn4Er-43" value="evidentirajOtpis()" style="text;strokeColor=none;fillColor=none;align=left;verticalAlign=middle;spacingLeft=4;spacingRight=4;overflow=hidden;points=[[0,0.5],[1,0.5]];portConstraint=eastwest;rotatable=0;whiteSpace=wrap;html=1;" parent="JrVqD8_4iXmEu2Tj7kiI-7" vertex="1">
          <mxGeometry y="398" width="210" height="30" as="geometry" />
        </mxCell>
        <mxCell id="8LqMRh5Xvni50Mecn4Er-10" value="evidentirajNabavku()" style="text;strokeColor=none;fillColor=none;align=left;verticalAlign=middle;spacingLeft=4;spacingRight=4;overflow=hidden;points=[[0,0.5],[1,0.5]];portConstraint=eastwest;rotatable=0;whiteSpace=wrap;html=1;" parent="JrVqD8_4iXmEu2Tj7kiI-7" vertex="1">
          <mxGeometry y="428" width="210" height="30" as="geometry" />
        </mxCell>
        <mxCell id="JrVqD8_4iXmEu2Tj7kiI-61" style="edgeStyle=orthogonalEdgeStyle;rounded=0;orthogonalLoop=1;jettySize=auto;html=1;entryX=0;entryY=0.5;entryDx=0;entryDy=0;" parent="WIyWlLk6GJQsqaUBKTNV-1" source="JrVqD8_4iXmEu2Tj7kiI-14" target="JrVqD8_4iXmEu2Tj7kiI-59" edge="1">
          <mxGeometry relative="1" as="geometry" />
        </mxCell>
        <mxCell id="8LqMRh5Xvni50Mecn4Er-61" style="edgeStyle=orthogonalEdgeStyle;rounded=0;orthogonalLoop=1;jettySize=auto;html=1;exitX=0.25;exitY=0;exitDx=0;exitDy=0;entryX=1;entryY=0.5;entryDx=0;entryDy=0;" parent="WIyWlLk6GJQsqaUBKTNV-1" source="JrVqD8_4iXmEu2Tj7kiI-14" target="JrVqD8_4iXmEu2Tj7kiI-28" edge="1">
          <mxGeometry relative="1" as="geometry">
            <Array as="points">
              <mxPoint x="723" y="-10" />
              <mxPoint x="330" y="-10" />
              <mxPoint x="330" y="665" />
            </Array>
          </mxGeometry>
        </mxCell>
        <mxCell id="JrVqD8_4iXmEu2Tj7kiI-14" value="Knjiga" style="swimlane;fontStyle=0;childLayout=stackLayout;horizontal=1;startSize=30;horizontalStack=0;resizeParent=1;resizeParentMax=0;resizeLast=0;collapsible=1;marginBottom=0;whiteSpace=wrap;html=1;" parent="WIyWlLk6GJQsqaUBKTNV-1" vertex="1">
          <mxGeometry x="670" y="30" width="210" height="428" as="geometry" />
        </mxCell>
        <mxCell id="JrVqD8_4iXmEu2Tj7kiI-15" value="int KnjigaID" style="text;strokeColor=none;fillColor=none;align=left;verticalAlign=middle;spacingLeft=4;spacingRight=4;overflow=hidden;points=[[0,0.5],[1,0.5]];portConstraint=eastwest;rotatable=0;whiteSpace=wrap;html=1;" parent="JrVqD8_4iXmEu2Tj7kiI-14" vertex="1">
          <mxGeometry y="30" width="210" height="30" as="geometry" />
        </mxCell>
        <mxCell id="JrVqD8_4iXmEu2Tj7kiI-16" value="string Naziv" style="text;strokeColor=none;fillColor=none;align=left;verticalAlign=middle;spacingLeft=4;spacingRight=4;overflow=hidden;points=[[0,0.5],[1,0.5]];portConstraint=eastwest;rotatable=0;whiteSpace=wrap;html=1;" parent="JrVqD8_4iXmEu2Tj7kiI-14" vertex="1">
          <mxGeometry y="60" width="210" height="30" as="geometry" />
        </mxCell>
        <mxCell id="JrVqD8_4iXmEu2Tj7kiI-17" value="string ISBN" style="text;strokeColor=none;fillColor=none;align=left;verticalAlign=middle;spacingLeft=4;spacingRight=4;overflow=hidden;points=[[0,0.5],[1,0.5]];portConstraint=eastwest;rotatable=0;whiteSpace=wrap;html=1;" parent="JrVqD8_4iXmEu2Tj7kiI-14" vertex="1">
          <mxGeometry y="90" width="210" height="30" as="geometry" />
        </mxCell>
        <mxCell id="JrVqD8_4iXmEu2Tj7kiI-11" value="string Dostupnost" style="text;strokeColor=none;fillColor=none;align=left;verticalAlign=middle;spacingLeft=4;spacingRight=4;overflow=hidden;points=[[0,0.5],[1,0.5]];portConstraint=eastwest;rotatable=0;whiteSpace=wrap;html=1;" parent="JrVqD8_4iXmEu2Tj7kiI-14" vertex="1">
          <mxGeometry y="120" width="210" height="30" as="geometry" />
        </mxCell>
        <mxCell id="JrVqD8_4iXmEu2Tj7kiI-18" value="string DigitalnaVerzija" style="text;strokeColor=none;fillColor=none;align=left;verticalAlign=middle;spacingLeft=4;spacingRight=4;overflow=hidden;points=[[0,0.5],[1,0.5]];portConstraint=eastwest;rotatable=0;whiteSpace=wrap;html=1;" parent="JrVqD8_4iXmEu2Tj7kiI-14" vertex="1">
          <mxGeometry y="150" width="210" height="30" as="geometry" />
        </mxCell>
        <mxCell id="JrVqD8_4iXmEu2Tj7kiI-45" value="string Opis" style="text;strokeColor=none;fillColor=none;align=left;verticalAlign=middle;spacingLeft=4;spacingRight=4;overflow=hidden;points=[[0,0.5],[1,0.5]];portConstraint=eastwest;rotatable=0;whiteSpace=wrap;html=1;" parent="JrVqD8_4iXmEu2Tj7kiI-14" vertex="1">
          <mxGeometry y="180" width="210" height="30" as="geometry" />
        </mxCell>
        <mxCell id="JrVqD8_4iXmEu2Tj7kiI-20" value="string Status" style="text;strokeColor=none;fillColor=none;align=left;verticalAlign=middle;spacingLeft=4;spacingRight=4;overflow=hidden;points=[[0,0.5],[1,0.5]];portConstraint=eastwest;rotatable=0;whiteSpace=wrap;html=1;" parent="JrVqD8_4iXmEu2Tj7kiI-14" vertex="1">
          <mxGeometry y="210" width="210" height="30" as="geometry" />
        </mxCell>
        <mxCell id="JrVqD8_4iXmEu2Tj7kiI-29" value="int KategorijaID" style="text;strokeColor=none;fillColor=none;align=left;verticalAlign=middle;spacingLeft=4;spacingRight=4;overflow=hidden;points=[[0,0.5],[1,0.5]];portConstraint=eastwest;rotatable=0;whiteSpace=wrap;html=1;" parent="JrVqD8_4iXmEu2Tj7kiI-14" vertex="1">
          <mxGeometry y="240" width="210" height="30" as="geometry" />
        </mxCell>
        <mxCell id="JrVqD8_4iXmEu2Tj7kiI-44" value="int AutorID&amp;nbsp;" style="text;strokeColor=none;fillColor=none;align=left;verticalAlign=middle;spacingLeft=4;spacingRight=4;overflow=hidden;points=[[0,0.5],[1,0.5]];portConstraint=eastwest;rotatable=0;whiteSpace=wrap;html=1;" parent="JrVqD8_4iXmEu2Tj7kiI-14" vertex="1">
          <mxGeometry y="270" width="210" height="30" as="geometry" />
        </mxCell>
        <mxCell id="JrVqD8_4iXmEu2Tj7kiI-108" value="int NabavkaID" style="text;strokeColor=none;fillColor=none;align=left;verticalAlign=middle;spacingLeft=4;spacingRight=4;overflow=hidden;points=[[0,0.5],[1,0.5]];portConstraint=eastwest;rotatable=0;whiteSpace=wrap;html=1;" parent="JrVqD8_4iXmEu2Tj7kiI-14" vertex="1">
          <mxGeometry y="300" width="210" height="30" as="geometry" />
        </mxCell>
        <mxCell id="8LqMRh5Xvni50Mecn4Er-21" value="" style="line;strokeWidth=1;fillColor=none;align=left;verticalAlign=middle;spacingTop=-1;spacingLeft=3;spacingRight=3;rotatable=0;labelPosition=right;points=[];portConstraint=eastwest;strokeColor=inherit;" parent="JrVqD8_4iXmEu2Tj7kiI-14" vertex="1">
          <mxGeometry y="330" width="210" height="8" as="geometry" />
        </mxCell>
        <mxCell id="8LqMRh5Xvni50Mecn4Er-22" value="jeDostupna()" style="text;strokeColor=none;fillColor=none;align=left;verticalAlign=middle;spacingLeft=4;spacingRight=4;overflow=hidden;points=[[0,0.5],[1,0.5]];portConstraint=eastwest;rotatable=0;whiteSpace=wrap;html=1;" parent="JrVqD8_4iXmEu2Tj7kiI-14" vertex="1">
          <mxGeometry y="338" width="210" height="30" as="geometry" />
        </mxCell>
        <mxCell id="8LqMRh5Xvni50Mecn4Er-23" value="označiKaoPosuđenu()" style="text;strokeColor=none;fillColor=none;align=left;verticalAlign=middle;spacingLeft=4;spacingRight=4;overflow=hidden;points=[[0,0.5],[1,0.5]];portConstraint=eastwest;rotatable=0;whiteSpace=wrap;html=1;" parent="JrVqD8_4iXmEu2Tj7kiI-14" vertex="1">
          <mxGeometry y="368" width="210" height="30" as="geometry" />
        </mxCell>
        <mxCell id="8LqMRh5Xvni50Mecn4Er-24" value="označiKaoVraćenu()" style="text;strokeColor=none;fillColor=none;align=left;verticalAlign=middle;spacingLeft=4;spacingRight=4;overflow=hidden;points=[[0,0.5],[1,0.5]];portConstraint=eastwest;rotatable=0;whiteSpace=wrap;html=1;" parent="JrVqD8_4iXmEu2Tj7kiI-14" vertex="1">
          <mxGeometry y="398" width="210" height="30" as="geometry" />
        </mxCell>
        <mxCell id="JrVqD8_4iXmEu2Tj7kiI-21" value="Kategorija" style="swimlane;fontStyle=0;childLayout=stackLayout;horizontal=1;startSize=30;horizontalStack=0;resizeParent=1;resizeParentMax=0;resizeLast=0;collapsible=1;marginBottom=0;whiteSpace=wrap;html=1;" parent="WIyWlLk6GJQsqaUBKTNV-1" vertex="1">
          <mxGeometry x="930" y="170" width="180" height="90" as="geometry" />
        </mxCell>
        <mxCell id="JrVqD8_4iXmEu2Tj7kiI-22" value="int KategorijaID" style="text;strokeColor=none;fillColor=none;align=left;verticalAlign=middle;spacingLeft=4;spacingRight=4;overflow=hidden;points=[[0,0.5],[1,0.5]];portConstraint=eastwest;rotatable=0;whiteSpace=wrap;html=1;" parent="JrVqD8_4iXmEu2Tj7kiI-21" vertex="1">
          <mxGeometry y="30" width="180" height="30" as="geometry" />
        </mxCell>
        <mxCell id="JrVqD8_4iXmEu2Tj7kiI-23" value="string Naziv" style="text;strokeColor=none;fillColor=none;align=left;verticalAlign=middle;spacingLeft=4;spacingRight=4;overflow=hidden;points=[[0,0.5],[1,0.5]];portConstraint=eastwest;rotatable=0;whiteSpace=wrap;html=1;" parent="JrVqD8_4iXmEu2Tj7kiI-21" vertex="1">
          <mxGeometry y="60" width="180" height="30" as="geometry" />
        </mxCell>
        <mxCell id="JrVqD8_4iXmEu2Tj7kiI-25" value="Posuba" style="swimlane;fontStyle=0;childLayout=stackLayout;horizontal=1;startSize=30;horizontalStack=0;resizeParent=1;resizeParentMax=0;resizeLast=0;collapsible=1;marginBottom=0;whiteSpace=wrap;html=1;" parent="WIyWlLk6GJQsqaUBKTNV-1" vertex="1">
          <mxGeometry x="80" y="560" width="210" height="488" as="geometry" />
        </mxCell>
        <mxCell id="JrVqD8_4iXmEu2Tj7kiI-26" value="int PosudbaID" style="text;strokeColor=none;fillColor=none;align=left;verticalAlign=middle;spacingLeft=4;spacingRight=4;overflow=hidden;points=[[0,0.5],[1,0.5]];portConstraint=eastwest;rotatable=0;whiteSpace=wrap;html=1;" parent="JrVqD8_4iXmEu2Tj7kiI-25" vertex="1">
          <mxGeometry y="30" width="210" height="30" as="geometry" />
        </mxCell>
        <mxCell id="JrVqD8_4iXmEu2Tj7kiI-27" value="date DatumPosudbe" style="text;strokeColor=none;fillColor=none;align=left;verticalAlign=middle;spacingLeft=4;spacingRight=4;overflow=hidden;points=[[0,0.5],[1,0.5]];portConstraint=eastwest;rotatable=0;whiteSpace=wrap;html=1;" parent="JrVqD8_4iXmEu2Tj7kiI-25" vertex="1">
          <mxGeometry y="60" width="210" height="30" as="geometry" />
        </mxCell>
        <mxCell id="JrVqD8_4iXmEu2Tj7kiI-28" value="date DatumPovrata" style="text;strokeColor=none;fillColor=none;align=left;verticalAlign=middle;spacingLeft=4;spacingRight=4;overflow=hidden;points=[[0,0.5],[1,0.5]];portConstraint=eastwest;rotatable=0;whiteSpace=wrap;html=1;" parent="JrVqD8_4iXmEu2Tj7kiI-25" vertex="1">
          <mxGeometry y="90" width="210" height="30" as="geometry" />
        </mxCell>
        <mxCell id="JrVqD8_4iXmEu2Tj7kiI-30" value="string Digitalna" style="text;strokeColor=none;fillColor=none;align=left;verticalAlign=middle;spacingLeft=4;spacingRight=4;overflow=hidden;points=[[0,0.5],[1,0.5]];portConstraint=eastwest;rotatable=0;whiteSpace=wrap;html=1;" parent="JrVqD8_4iXmEu2Tj7kiI-25" vertex="1">
          <mxGeometry y="120" width="210" height="30" as="geometry" />
        </mxCell>
        <mxCell id="JrVqD8_4iXmEu2Tj7kiI-31" value="string Status" style="text;strokeColor=none;fillColor=none;align=left;verticalAlign=middle;spacingLeft=4;spacingRight=4;overflow=hidden;points=[[0,0.5],[1,0.5]];portConstraint=eastwest;rotatable=0;whiteSpace=wrap;html=1;" parent="JrVqD8_4iXmEu2Tj7kiI-25" vertex="1">
          <mxGeometry y="150" width="210" height="30" as="geometry" />
        </mxCell>
        <mxCell id="JrVqD8_4iXmEu2Tj7kiI-36" value="int StudentID" style="text;strokeColor=none;fillColor=none;align=left;verticalAlign=middle;spacingLeft=4;spacingRight=4;overflow=hidden;points=[[0,0.5],[1,0.5]];portConstraint=eastwest;rotatable=0;whiteSpace=wrap;html=1;" parent="JrVqD8_4iXmEu2Tj7kiI-25" vertex="1">
          <mxGeometry y="180" width="210" height="30" as="geometry" />
        </mxCell>
        <mxCell id="JrVqD8_4iXmEu2Tj7kiI-37" value="int KnjigaID" style="text;strokeColor=none;fillColor=none;align=left;verticalAlign=middle;spacingLeft=4;spacingRight=4;overflow=hidden;points=[[0,0.5],[1,0.5]];portConstraint=eastwest;rotatable=0;whiteSpace=wrap;html=1;" parent="JrVqD8_4iXmEu2Tj7kiI-25" vertex="1">
          <mxGeometry y="210" width="210" height="30" as="geometry" />
        </mxCell>
        <mxCell id="JrVqD8_4iXmEu2Tj7kiI-46" value="int KnjižničarID" style="text;strokeColor=none;fillColor=none;align=left;verticalAlign=middle;spacingLeft=4;spacingRight=4;overflow=hidden;points=[[0,0.5],[1,0.5]];portConstraint=eastwest;rotatable=0;whiteSpace=wrap;html=1;" parent="JrVqD8_4iXmEu2Tj7kiI-25" vertex="1">
          <mxGeometry y="240" width="210" height="30" as="geometry" />
        </mxCell>
        <mxCell id="8LqMRh5Xvni50Mecn4Er-26" value="" style="line;strokeWidth=1;fillColor=none;align=left;verticalAlign=middle;spacingTop=-1;spacingLeft=3;spacingRight=3;rotatable=0;labelPosition=right;points=[];portConstraint=eastwest;strokeColor=inherit;" parent="JrVqD8_4iXmEu2Tj7kiI-25" vertex="1">
          <mxGeometry y="270" width="210" height="8" as="geometry" />
        </mxCell>
        <mxCell id="8LqMRh5Xvni50Mecn4Er-30" value="jeAktivna()" style="text;strokeColor=none;fillColor=none;align=left;verticalAlign=middle;spacingLeft=4;spacingRight=4;overflow=hidden;points=[[0,0.5],[1,0.5]];portConstraint=eastwest;rotatable=0;whiteSpace=wrap;html=1;" parent="JrVqD8_4iXmEu2Tj7kiI-25" vertex="1">
          <mxGeometry y="278" width="210" height="30" as="geometry" />
        </mxCell>
        <mxCell id="8LqMRh5Xvni50Mecn4Er-27" value="jeZakasnjenje()" style="text;strokeColor=none;fillColor=none;align=left;verticalAlign=middle;spacingLeft=4;spacingRight=4;overflow=hidden;points=[[0,0.5],[1,0.5]];portConstraint=eastwest;rotatable=0;whiteSpace=wrap;html=1;" parent="JrVqD8_4iXmEu2Tj7kiI-25" vertex="1">
          <mxGeometry y="308" width="210" height="30" as="geometry" />
        </mxCell>
        <mxCell id="8LqMRh5Xvni50Mecn4Er-28" value="dohvatiTrajanje()" style="text;strokeColor=none;fillColor=none;align=left;verticalAlign=middle;spacingLeft=4;spacingRight=4;overflow=hidden;points=[[0,0.5],[1,0.5]];portConstraint=eastwest;rotatable=0;whiteSpace=wrap;html=1;" parent="JrVqD8_4iXmEu2Tj7kiI-25" vertex="1">
          <mxGeometry y="338" width="210" height="30" as="geometry" />
        </mxCell>
        <mxCell id="8LqMRh5Xvni50Mecn4Er-29" value="dohvatiDetalje()" style="text;strokeColor=none;fillColor=none;align=left;verticalAlign=middle;spacingLeft=4;spacingRight=4;overflow=hidden;points=[[0,0.5],[1,0.5]];portConstraint=eastwest;rotatable=0;whiteSpace=wrap;html=1;" parent="JrVqD8_4iXmEu2Tj7kiI-25" vertex="1">
          <mxGeometry y="368" width="210" height="30" as="geometry" />
        </mxCell>
        <mxCell id="8LqMRh5Xvni50Mecn4Er-37" value="obavijestiStudenta()" style="text;strokeColor=none;fillColor=none;align=left;verticalAlign=middle;spacingLeft=4;spacingRight=4;overflow=hidden;points=[[0,0.5],[1,0.5]];portConstraint=eastwest;rotatable=0;whiteSpace=wrap;html=1;" parent="JrVqD8_4iXmEu2Tj7kiI-25" vertex="1">
          <mxGeometry y="398" width="210" height="30" as="geometry" />
        </mxCell>
        <mxCell id="8LqMRh5Xvni50Mecn4Er-36" value="pregledPosudbi()" style="text;strokeColor=none;fillColor=none;align=left;verticalAlign=middle;spacingLeft=4;spacingRight=4;overflow=hidden;points=[[0,0.5],[1,0.5]];portConstraint=eastwest;rotatable=0;whiteSpace=wrap;html=1;" parent="JrVqD8_4iXmEu2Tj7kiI-25" vertex="1">
          <mxGeometry y="428" width="210" height="30" as="geometry" />
        </mxCell>
        <mxCell id="8LqMRh5Xvni50Mecn4Er-25" value="evidentirajPovrat()" style="text;strokeColor=none;fillColor=none;align=left;verticalAlign=middle;spacingLeft=4;spacingRight=4;overflow=hidden;points=[[0,0.5],[1,0.5]];portConstraint=eastwest;rotatable=0;whiteSpace=wrap;html=1;" parent="JrVqD8_4iXmEu2Tj7kiI-25" vertex="1">
          <mxGeometry y="458" width="210" height="30" as="geometry" />
        </mxCell>
        <mxCell id="JrVqD8_4iXmEu2Tj7kiI-32" value="Rezervacija" style="swimlane;fontStyle=0;childLayout=stackLayout;horizontal=1;startSize=30;horizontalStack=0;resizeParent=1;resizeParentMax=0;resizeLast=0;collapsible=1;marginBottom=0;whiteSpace=wrap;html=1;" parent="WIyWlLk6GJQsqaUBKTNV-1" vertex="1">
          <mxGeometry x="400" y="476" width="210" height="308" as="geometry" />
        </mxCell>
        <mxCell id="JrVqD8_4iXmEu2Tj7kiI-33" value="int RezervacijaID" style="text;strokeColor=none;fillColor=none;align=left;verticalAlign=middle;spacingLeft=4;spacingRight=4;overflow=hidden;points=[[0,0.5],[1,0.5]];portConstraint=eastwest;rotatable=0;whiteSpace=wrap;html=1;" parent="JrVqD8_4iXmEu2Tj7kiI-32" vertex="1">
          <mxGeometry y="30" width="210" height="30" as="geometry" />
        </mxCell>
        <mxCell id="JrVqD8_4iXmEu2Tj7kiI-34" value="date DatumRezervacije" style="text;strokeColor=none;fillColor=none;align=left;verticalAlign=middle;spacingLeft=4;spacingRight=4;overflow=hidden;points=[[0,0.5],[1,0.5]];portConstraint=eastwest;rotatable=0;whiteSpace=wrap;html=1;" parent="JrVqD8_4iXmEu2Tj7kiI-32" vertex="1">
          <mxGeometry y="60" width="210" height="30" as="geometry" />
        </mxCell>
        <mxCell id="JrVqD8_4iXmEu2Tj7kiI-35" value="string Status" style="text;strokeColor=none;fillColor=none;align=left;verticalAlign=middle;spacingLeft=4;spacingRight=4;overflow=hidden;points=[[0,0.5],[1,0.5]];portConstraint=eastwest;rotatable=0;whiteSpace=wrap;html=1;" parent="JrVqD8_4iXmEu2Tj7kiI-32" vertex="1">
          <mxGeometry y="90" width="210" height="30" as="geometry" />
        </mxCell>
        <mxCell id="JrVqD8_4iXmEu2Tj7kiI-39" value="int StudentID" style="text;strokeColor=none;fillColor=none;align=left;verticalAlign=middle;spacingLeft=4;spacingRight=4;overflow=hidden;points=[[0,0.5],[1,0.5]];portConstraint=eastwest;rotatable=0;whiteSpace=wrap;html=1;" parent="JrVqD8_4iXmEu2Tj7kiI-32" vertex="1">
          <mxGeometry y="120" width="210" height="30" as="geometry" />
        </mxCell>
        <mxCell id="JrVqD8_4iXmEu2Tj7kiI-38" value="int KnjigaID" style="text;strokeColor=none;fillColor=none;align=left;verticalAlign=middle;spacingLeft=4;spacingRight=4;overflow=hidden;points=[[0,0.5],[1,0.5]];portConstraint=eastwest;rotatable=0;whiteSpace=wrap;html=1;" parent="JrVqD8_4iXmEu2Tj7kiI-32" vertex="1">
          <mxGeometry y="150" width="210" height="30" as="geometry" />
        </mxCell>
        <mxCell id="JrVqD8_4iXmEu2Tj7kiI-47" value="int KnjižničarID&amp;nbsp;" style="text;strokeColor=none;fillColor=none;align=left;verticalAlign=middle;spacingLeft=4;spacingRight=4;overflow=hidden;points=[[0,0.5],[1,0.5]];portConstraint=eastwest;rotatable=0;whiteSpace=wrap;html=1;" parent="JrVqD8_4iXmEu2Tj7kiI-32" vertex="1">
          <mxGeometry y="180" width="210" height="30" as="geometry" />
        </mxCell>
        <mxCell id="8LqMRh5Xvni50Mecn4Er-32" value="" style="line;strokeWidth=1;fillColor=none;align=left;verticalAlign=middle;spacingTop=-1;spacingLeft=3;spacingRight=3;rotatable=0;labelPosition=right;points=[];portConstraint=eastwest;strokeColor=inherit;" parent="JrVqD8_4iXmEu2Tj7kiI-32" vertex="1">
          <mxGeometry y="210" width="210" height="8" as="geometry" />
        </mxCell>
        <mxCell id="8LqMRh5Xvni50Mecn4Er-31" value="jeAktivna()" style="text;strokeColor=none;fillColor=none;align=left;verticalAlign=middle;spacingLeft=4;spacingRight=4;overflow=hidden;points=[[0,0.5],[1,0.5]];portConstraint=eastwest;rotatable=0;whiteSpace=wrap;html=1;" parent="JrVqD8_4iXmEu2Tj7kiI-32" vertex="1">
          <mxGeometry y="218" width="210" height="30" as="geometry" />
        </mxCell>
        <mxCell id="8LqMRh5Xvni50Mecn4Er-35" value="obavijestiStudenta()" style="text;strokeColor=none;fillColor=none;align=left;verticalAlign=middle;spacingLeft=4;spacingRight=4;overflow=hidden;points=[[0,0.5],[1,0.5]];portConstraint=eastwest;rotatable=0;whiteSpace=wrap;html=1;" parent="JrVqD8_4iXmEu2Tj7kiI-32" vertex="1">
          <mxGeometry y="248" width="210" height="30" as="geometry" />
        </mxCell>
        <mxCell id="8LqMRh5Xvni50Mecn4Er-33" value="dohvatiDetalje()" style="text;strokeColor=none;fillColor=none;align=left;verticalAlign=middle;spacingLeft=4;spacingRight=4;overflow=hidden;points=[[0,0.5],[1,0.5]];portConstraint=eastwest;rotatable=0;whiteSpace=wrap;html=1;" parent="JrVqD8_4iXmEu2Tj7kiI-32" vertex="1">
          <mxGeometry y="278" width="210" height="30" as="geometry" />
        </mxCell>
        <mxCell id="JrVqD8_4iXmEu2Tj7kiI-64" style="edgeStyle=orthogonalEdgeStyle;rounded=0;orthogonalLoop=1;jettySize=auto;html=1;entryX=1;entryY=0.5;entryDx=0;entryDy=0;" parent="WIyWlLk6GJQsqaUBKTNV-1" source="JrVqD8_4iXmEu2Tj7kiI-40" target="JrVqD8_4iXmEu2Tj7kiI-44" edge="1">
          <mxGeometry relative="1" as="geometry" />
        </mxCell>
        <mxCell id="JrVqD8_4iXmEu2Tj7kiI-40" value="Autor" style="swimlane;fontStyle=0;childLayout=stackLayout;horizontal=1;startSize=30;horizontalStack=0;resizeParent=1;resizeParentMax=0;resizeLast=0;collapsible=1;marginBottom=0;whiteSpace=wrap;html=1;" parent="WIyWlLk6GJQsqaUBKTNV-1" vertex="1">
          <mxGeometry x="920" y="410" width="200" height="120" as="geometry" />
        </mxCell>
        <mxCell id="JrVqD8_4iXmEu2Tj7kiI-43" value="int AutorID" style="text;strokeColor=none;fillColor=none;align=left;verticalAlign=middle;spacingLeft=4;spacingRight=4;overflow=hidden;points=[[0,0.5],[1,0.5]];portConstraint=eastwest;rotatable=0;whiteSpace=wrap;html=1;" parent="JrVqD8_4iXmEu2Tj7kiI-40" vertex="1">
          <mxGeometry y="30" width="200" height="30" as="geometry" />
        </mxCell>
        <mxCell id="JrVqD8_4iXmEu2Tj7kiI-41" value="string Ime" style="text;strokeColor=none;fillColor=none;align=left;verticalAlign=middle;spacingLeft=4;spacingRight=4;overflow=hidden;points=[[0,0.5],[1,0.5]];portConstraint=eastwest;rotatable=0;whiteSpace=wrap;html=1;" parent="JrVqD8_4iXmEu2Tj7kiI-40" vertex="1">
          <mxGeometry y="60" width="200" height="30" as="geometry" />
        </mxCell>
        <mxCell id="JrVqD8_4iXmEu2Tj7kiI-42" value="string Prezime" style="text;strokeColor=none;fillColor=none;align=left;verticalAlign=middle;spacingLeft=4;spacingRight=4;overflow=hidden;points=[[0,0.5],[1,0.5]];portConstraint=eastwest;rotatable=0;whiteSpace=wrap;html=1;" parent="JrVqD8_4iXmEu2Tj7kiI-40" vertex="1">
          <mxGeometry y="90" width="200" height="30" as="geometry" />
        </mxCell>
        <mxCell id="JrVqD8_4iXmEu2Tj7kiI-50" style="edgeStyle=orthogonalEdgeStyle;rounded=0;orthogonalLoop=1;jettySize=auto;html=1;exitX=0;exitY=0.5;exitDx=0;exitDy=0;" parent="WIyWlLk6GJQsqaUBKTNV-1" source="JrVqD8_4iXmEu2Tj7kiI-22" target="JrVqD8_4iXmEu2Tj7kiI-29" edge="1">
          <mxGeometry relative="1" as="geometry" />
        </mxCell>
        <mxCell id="JrVqD8_4iXmEu2Tj7kiI-57" value="KnjigaAutor" style="swimlane;fontStyle=0;childLayout=stackLayout;horizontal=1;startSize=30;horizontalStack=0;resizeParent=1;resizeParentMax=0;resizeLast=0;collapsible=1;marginBottom=0;whiteSpace=wrap;html=1;" parent="WIyWlLk6GJQsqaUBKTNV-1" vertex="1">
          <mxGeometry x="860" y="600" width="170" height="90" as="geometry" />
        </mxCell>
        <mxCell id="JrVqD8_4iXmEu2Tj7kiI-58" value="int AutorID" style="text;strokeColor=none;fillColor=none;align=left;verticalAlign=middle;spacingLeft=4;spacingRight=4;overflow=hidden;points=[[0,0.5],[1,0.5]];portConstraint=eastwest;rotatable=0;whiteSpace=wrap;html=1;" parent="JrVqD8_4iXmEu2Tj7kiI-57" vertex="1">
          <mxGeometry y="30" width="170" height="30" as="geometry" />
        </mxCell>
        <mxCell id="JrVqD8_4iXmEu2Tj7kiI-59" value="int KnjigaID" style="text;strokeColor=none;fillColor=none;align=left;verticalAlign=middle;spacingLeft=4;spacingRight=4;overflow=hidden;points=[[0,0.5],[1,0.5]];portConstraint=eastwest;rotatable=0;whiteSpace=wrap;html=1;" parent="JrVqD8_4iXmEu2Tj7kiI-57" vertex="1">
          <mxGeometry y="60" width="170" height="30" as="geometry" />
        </mxCell>
        <mxCell id="JrVqD8_4iXmEu2Tj7kiI-62" style="edgeStyle=orthogonalEdgeStyle;rounded=0;orthogonalLoop=1;jettySize=auto;html=1;exitX=0;exitY=0.5;exitDx=0;exitDy=0;entryX=0;entryY=0.5;entryDx=0;entryDy=0;" parent="WIyWlLk6GJQsqaUBKTNV-1" source="JrVqD8_4iXmEu2Tj7kiI-43" target="JrVqD8_4iXmEu2Tj7kiI-58" edge="1">
          <mxGeometry relative="1" as="geometry">
            <Array as="points">
              <mxPoint x="920" y="480" />
              <mxPoint x="830" y="480" />
              <mxPoint x="830" y="645" />
            </Array>
          </mxGeometry>
        </mxCell>
        <mxCell id="JrVqD8_4iXmEu2Tj7kiI-69" value="1" style="text;html=1;align=center;verticalAlign=middle;whiteSpace=wrap;rounded=0;" parent="WIyWlLk6GJQsqaUBKTNV-1" vertex="1">
          <mxGeometry x="700" y="10" width="60" height="30" as="geometry" />
        </mxCell>
        <mxCell id="JrVqD8_4iXmEu2Tj7kiI-70" value="1" style="text;html=1;align=center;verticalAlign=middle;whiteSpace=wrap;rounded=0;" parent="WIyWlLk6GJQsqaUBKTNV-1" vertex="1">
          <mxGeometry x="650" y="60" width="30" height="20" as="geometry" />
        </mxCell>
        <mxCell id="JrVqD8_4iXmEu2Tj7kiI-72" value="1" style="text;html=1;align=center;verticalAlign=middle;whiteSpace=wrap;rounded=0;" parent="WIyWlLk6GJQsqaUBKTNV-1" vertex="1">
          <mxGeometry x="640" y="418" width="30" height="20" as="geometry" />
        </mxCell>
        <mxCell id="JrVqD8_4iXmEu2Tj7kiI-74" value="1" style="text;html=1;align=center;verticalAlign=middle;whiteSpace=wrap;rounded=0;" parent="WIyWlLk6GJQsqaUBKTNV-1" vertex="1">
          <mxGeometry x="910" y="200" width="30" height="20" as="geometry" />
        </mxCell>
        <mxCell id="JrVqD8_4iXmEu2Tj7kiI-75" value="1" style="text;html=1;align=center;verticalAlign=middle;whiteSpace=wrap;rounded=0;" parent="WIyWlLk6GJQsqaUBKTNV-1" vertex="1">
          <mxGeometry x="1020" y="390" width="30" height="20" as="geometry" />
        </mxCell>
        <mxCell id="JrVqD8_4iXmEu2Tj7kiI-76" value="1" style="text;html=1;align=center;verticalAlign=middle;whiteSpace=wrap;rounded=0;" parent="WIyWlLk6GJQsqaUBKTNV-1" vertex="1">
          <mxGeometry x="900" y="460" width="30" height="20" as="geometry" />
        </mxCell>
        <mxCell id="JrVqD8_4iXmEu2Tj7kiI-77" value="1" style="text;html=1;align=center;verticalAlign=middle;whiteSpace=wrap;rounded=0;" parent="WIyWlLk6GJQsqaUBKTNV-1" vertex="1">
          <mxGeometry x="510" y="398" width="30" height="20" as="geometry" />
        </mxCell>
        <mxCell id="JrVqD8_4iXmEu2Tj7kiI-79" value="1" style="text;html=1;align=center;verticalAlign=middle;whiteSpace=wrap;rounded=0;" parent="WIyWlLk6GJQsqaUBKTNV-1" vertex="1">
          <mxGeometry x="180" y="460" width="30" height="20" as="geometry" />
        </mxCell>
        <mxCell id="JrVqD8_4iXmEu2Tj7kiI-81" value="1" style="text;html=1;align=center;verticalAlign=middle;whiteSpace=wrap;rounded=0;" parent="WIyWlLk6GJQsqaUBKTNV-1" vertex="1">
          <mxGeometry x="375" y="330" width="30" height="20" as="geometry" />
        </mxCell>
        <mxCell id="JrVqD8_4iXmEu2Tj7kiI-82" value="N" style="text;html=1;align=center;verticalAlign=middle;whiteSpace=wrap;rounded=0;" parent="WIyWlLk6GJQsqaUBKTNV-1" vertex="1">
          <mxGeometry x="300" y="600" width="30" height="20" as="geometry" />
        </mxCell>
        <mxCell id="JrVqD8_4iXmEu2Tj7kiI-83" value="N" style="text;html=1;align=center;verticalAlign=middle;whiteSpace=wrap;rounded=0;" parent="WIyWlLk6GJQsqaUBKTNV-1" vertex="1">
          <mxGeometry x="510" y="450" width="30" height="20" as="geometry" />
        </mxCell>
        <mxCell id="JrVqD8_4iXmEu2Tj7kiI-84" value="1" style="text;html=1;align=center;verticalAlign=middle;whiteSpace=wrap;rounded=0;" parent="WIyWlLk6GJQsqaUBKTNV-1" vertex="1">
          <mxGeometry x="280" y="370" width="30" height="20" as="geometry" />
        </mxCell>
        <mxCell id="JrVqD8_4iXmEu2Tj7kiI-85" value="N" style="text;html=1;align=center;verticalAlign=middle;whiteSpace=wrap;rounded=0;" parent="WIyWlLk6GJQsqaUBKTNV-1" vertex="1">
          <mxGeometry x="610" y="860" width="30" height="20" as="geometry" />
        </mxCell>
        <mxCell id="JrVqD8_4iXmEu2Tj7kiI-86" value="N" style="text;html=1;align=center;verticalAlign=middle;whiteSpace=wrap;rounded=0;" parent="WIyWlLk6GJQsqaUBKTNV-1" vertex="1">
          <mxGeometry x="830" y="655" width="30" height="20" as="geometry" />
        </mxCell>
        <mxCell id="JrVqD8_4iXmEu2Tj7kiI-89" value="N" style="text;html=1;align=center;verticalAlign=middle;whiteSpace=wrap;rounded=0;" parent="WIyWlLk6GJQsqaUBKTNV-1" vertex="1">
          <mxGeometry x="830" y="620" width="30" height="20" as="geometry" />
        </mxCell>
        <mxCell id="JrVqD8_4iXmEu2Tj7kiI-90" value="N" style="text;html=1;align=center;verticalAlign=middle;whiteSpace=wrap;rounded=0;" parent="WIyWlLk6GJQsqaUBKTNV-1" vertex="1">
          <mxGeometry x="880" y="260" width="30" height="20" as="geometry" />
        </mxCell>
        <mxCell id="JrVqD8_4iXmEu2Tj7kiI-91" value="N" style="text;html=1;align=center;verticalAlign=middle;whiteSpace=wrap;rounded=0;" parent="WIyWlLk6GJQsqaUBKTNV-1" vertex="1">
          <mxGeometry x="880" y="300" width="30" height="20" as="geometry" />
        </mxCell>
        <mxCell id="JrVqD8_4iXmEu2Tj7kiI-92" value="N" style="text;html=1;align=center;verticalAlign=middle;whiteSpace=wrap;rounded=0;" parent="WIyWlLk6GJQsqaUBKTNV-1" vertex="1">
          <mxGeometry x="360" y="655" width="30" height="20" as="geometry" />
        </mxCell>
        <mxCell id="JrVqD8_4iXmEu2Tj7kiI-93" value="N" style="text;html=1;align=center;verticalAlign=middle;whiteSpace=wrap;rounded=0;" parent="WIyWlLk6GJQsqaUBKTNV-1" vertex="1">
          <mxGeometry x="700" y="470" width="30" height="20" as="geometry" />
        </mxCell>
        <mxCell id="JrVqD8_4iXmEu2Tj7kiI-94" value="N" style="text;html=1;align=center;verticalAlign=middle;whiteSpace=wrap;rounded=0;" parent="WIyWlLk6GJQsqaUBKTNV-1" vertex="1">
          <mxGeometry x="180" y="530" width="30" height="20" as="geometry" />
        </mxCell>
        <mxCell id="8LqMRh5Xvni50Mecn4Er-53" style="edgeStyle=orthogonalEdgeStyle;rounded=0;orthogonalLoop=1;jettySize=auto;html=1;entryX=0.16;entryY=0.898;entryDx=0;entryDy=0;entryPerimeter=0;" parent="WIyWlLk6GJQsqaUBKTNV-1" source="JrVqD8_4iXmEu2Tj7kiI-95" target="8LqMRh5Xvni50Mecn4Er-24" edge="1">
          <mxGeometry relative="1" as="geometry">
            <mxPoint x="710" y="470" as="targetPoint" />
            <Array as="points">
              <mxPoint x="704" y="1009" />
            </Array>
          </mxGeometry>
        </mxCell>
        <mxCell id="JrVqD8_4iXmEu2Tj7kiI-95" value="Nabavka" style="swimlane;fontStyle=0;childLayout=stackLayout;horizontal=1;startSize=30;horizontalStack=0;resizeParent=1;resizeParentMax=0;resizeLast=0;collapsible=1;marginBottom=0;whiteSpace=wrap;html=1;" parent="WIyWlLk6GJQsqaUBKTNV-1" vertex="1">
          <mxGeometry x="750" y="890" width="240" height="238" as="geometry" />
        </mxCell>
        <mxCell id="JrVqD8_4iXmEu2Tj7kiI-96" value="int NabavkaID" style="text;strokeColor=none;fillColor=none;align=left;verticalAlign=middle;spacingLeft=4;spacingRight=4;overflow=hidden;points=[[0,0.5],[1,0.5]];portConstraint=eastwest;rotatable=0;whiteSpace=wrap;html=1;" parent="JrVqD8_4iXmEu2Tj7kiI-95" vertex="1">
          <mxGeometry y="30" width="240" height="30" as="geometry" />
        </mxCell>
        <mxCell id="JrVqD8_4iXmEu2Tj7kiI-97" value="date DatumNabavke" style="text;strokeColor=none;fillColor=none;align=left;verticalAlign=middle;spacingLeft=4;spacingRight=4;overflow=hidden;points=[[0,0.5],[1,0.5]];portConstraint=eastwest;rotatable=0;whiteSpace=wrap;html=1;" parent="JrVqD8_4iXmEu2Tj7kiI-95" vertex="1">
          <mxGeometry y="60" width="240" height="30" as="geometry" />
        </mxCell>
        <mxCell id="JrVqD8_4iXmEu2Tj7kiI-98" value="number Iznos" style="text;strokeColor=none;fillColor=none;align=left;verticalAlign=middle;spacingLeft=4;spacingRight=4;overflow=hidden;points=[[0,0.5],[1,0.5]];portConstraint=eastwest;rotatable=0;whiteSpace=wrap;html=1;" parent="JrVqD8_4iXmEu2Tj7kiI-95" vertex="1">
          <mxGeometry y="90" width="240" height="20" as="geometry" />
        </mxCell>
        <mxCell id="JrVqD8_4iXmEu2Tj7kiI-103" value="string Dobavljač" style="text;strokeColor=none;fillColor=none;align=left;verticalAlign=middle;spacingLeft=4;spacingRight=4;overflow=hidden;points=[[0,0.5],[1,0.5]];portConstraint=eastwest;rotatable=0;whiteSpace=wrap;html=1;" parent="JrVqD8_4iXmEu2Tj7kiI-95" vertex="1">
          <mxGeometry y="110" width="240" height="30" as="geometry" />
        </mxCell>
        <mxCell id="JrVqD8_4iXmEu2Tj7kiI-105" value="string Tip" style="text;strokeColor=none;fillColor=none;align=left;verticalAlign=middle;spacingLeft=4;spacingRight=4;overflow=hidden;points=[[0,0.5],[1,0.5]];portConstraint=eastwest;rotatable=0;whiteSpace=wrap;html=1;" parent="JrVqD8_4iXmEu2Tj7kiI-95" vertex="1">
          <mxGeometry y="140" width="240" height="30" as="geometry" />
        </mxCell>
        <mxCell id="JrVqD8_4iXmEu2Tj7kiI-104" value="string Napomena" style="text;strokeColor=none;fillColor=none;align=left;verticalAlign=middle;spacingLeft=4;spacingRight=4;overflow=hidden;points=[[0,0.5],[1,0.5]];portConstraint=eastwest;rotatable=0;whiteSpace=wrap;html=1;" parent="JrVqD8_4iXmEu2Tj7kiI-95" vertex="1">
          <mxGeometry y="170" width="240" height="30" as="geometry" />
        </mxCell>
        <mxCell id="8LqMRh5Xvni50Mecn4Er-42" value="" style="line;strokeWidth=1;fillColor=none;align=left;verticalAlign=middle;spacingTop=-1;spacingLeft=3;spacingRight=3;rotatable=0;labelPosition=right;points=[];portConstraint=eastwest;strokeColor=inherit;" parent="JrVqD8_4iXmEu2Tj7kiI-95" vertex="1">
          <mxGeometry y="200" width="240" height="8" as="geometry" />
        </mxCell>
        <mxCell id="8LqMRh5Xvni50Mecn4Er-38" value="dohvatiDetalje()" style="text;strokeColor=none;fillColor=none;align=left;verticalAlign=middle;spacingLeft=4;spacingRight=4;overflow=hidden;points=[[0,0.5],[1,0.5]];portConstraint=eastwest;rotatable=0;whiteSpace=wrap;html=1;" parent="JrVqD8_4iXmEu2Tj7kiI-95" vertex="1">
          <mxGeometry y="208" width="240" height="30" as="geometry" />
        </mxCell>
        <mxCell id="JrVqD8_4iXmEu2Tj7kiI-99" value="Otpis" style="swimlane;fontStyle=0;childLayout=stackLayout;horizontal=1;startSize=30;horizontalStack=0;resizeParent=1;resizeParentMax=0;resizeLast=0;collapsible=1;marginBottom=0;whiteSpace=wrap;html=1;" parent="WIyWlLk6GJQsqaUBKTNV-1" vertex="1">
          <mxGeometry x="410" y="890" width="250" height="188" as="geometry" />
        </mxCell>
        <mxCell id="JrVqD8_4iXmEu2Tj7kiI-100" value="int OtpisID" style="text;strokeColor=none;fillColor=none;align=left;verticalAlign=middle;spacingLeft=4;spacingRight=4;overflow=hidden;points=[[0,0.5],[1,0.5]];portConstraint=eastwest;rotatable=0;whiteSpace=wrap;html=1;" parent="JrVqD8_4iXmEu2Tj7kiI-99" vertex="1">
          <mxGeometry y="30" width="250" height="30" as="geometry" />
        </mxCell>
        <mxCell id="JrVqD8_4iXmEu2Tj7kiI-101" value="date DatumOtpisa" style="text;strokeColor=none;fillColor=none;align=left;verticalAlign=middle;spacingLeft=4;spacingRight=4;overflow=hidden;points=[[0,0.5],[1,0.5]];portConstraint=eastwest;rotatable=0;whiteSpace=wrap;html=1;" parent="JrVqD8_4iXmEu2Tj7kiI-99" vertex="1">
          <mxGeometry y="60" width="250" height="30" as="geometry" />
        </mxCell>
        <mxCell id="JrVqD8_4iXmEu2Tj7kiI-102" value="string RazlogOtpisa" style="text;strokeColor=none;fillColor=none;align=left;verticalAlign=middle;spacingLeft=4;spacingRight=4;overflow=hidden;points=[[0,0.5],[1,0.5]];portConstraint=eastwest;rotatable=0;whiteSpace=wrap;html=1;" parent="JrVqD8_4iXmEu2Tj7kiI-99" vertex="1">
          <mxGeometry y="90" width="250" height="30" as="geometry" />
        </mxCell>
        <mxCell id="JrVqD8_4iXmEu2Tj7kiI-106" value="int KnjigaID" style="text;strokeColor=none;fillColor=none;align=left;verticalAlign=middle;spacingLeft=4;spacingRight=4;overflow=hidden;points=[[0,0.5],[1,0.5]];portConstraint=eastwest;rotatable=0;whiteSpace=wrap;html=1;" parent="JrVqD8_4iXmEu2Tj7kiI-99" vertex="1">
          <mxGeometry y="120" width="250" height="30" as="geometry" />
        </mxCell>
        <mxCell id="8LqMRh5Xvni50Mecn4Er-41" value="" style="line;strokeWidth=1;fillColor=none;align=left;verticalAlign=middle;spacingTop=-1;spacingLeft=3;spacingRight=3;rotatable=0;labelPosition=right;points=[];portConstraint=eastwest;strokeColor=inherit;" parent="JrVqD8_4iXmEu2Tj7kiI-99" vertex="1">
          <mxGeometry y="150" width="250" height="8" as="geometry" />
        </mxCell>
        <mxCell id="8LqMRh5Xvni50Mecn4Er-40" value="dohvatiDetalje()" style="text;strokeColor=none;fillColor=none;align=left;verticalAlign=middle;spacingLeft=4;spacingRight=4;overflow=hidden;points=[[0,0.5],[1,0.5]];portConstraint=eastwest;rotatable=0;whiteSpace=wrap;html=1;" parent="JrVqD8_4iXmEu2Tj7kiI-99" vertex="1">
          <mxGeometry y="158" width="250" height="30" as="geometry" />
        </mxCell>
        <mxCell id="JrVqD8_4iXmEu2Tj7kiI-109" value="1" style="text;html=1;align=center;verticalAlign=middle;whiteSpace=wrap;rounded=0;" parent="WIyWlLk6GJQsqaUBKTNV-1" vertex="1">
          <mxGeometry x="730" y="990" width="30" height="20" as="geometry" />
        </mxCell>
        <mxCell id="JrVqD8_4iXmEu2Tj7kiI-110" value="1" style="text;html=1;align=center;verticalAlign=middle;whiteSpace=wrap;rounded=0;" parent="WIyWlLk6GJQsqaUBKTNV-1" vertex="1">
          <mxGeometry x="770" y="460" width="30" height="20" as="geometry" />
        </mxCell>
        <mxCell id="JrVqD8_4iXmEu2Tj7kiI-113" value="N" style="text;html=1;align=center;verticalAlign=middle;whiteSpace=wrap;rounded=0;" parent="WIyWlLk6GJQsqaUBKTNV-1" vertex="1">
          <mxGeometry x="610" y="610" width="30" height="20" as="geometry" />
        </mxCell>
        <mxCell id="8LqMRh5Xvni50Mecn4Er-45" style="edgeStyle=orthogonalEdgeStyle;rounded=0;orthogonalLoop=1;jettySize=auto;html=1;" parent="WIyWlLk6GJQsqaUBKTNV-1" source="8LqMRh5Xvni50Mecn4Er-10" target="JrVqD8_4iXmEu2Tj7kiI-25" edge="1">
          <mxGeometry relative="1" as="geometry">
            <Array as="points">
              <mxPoint x="185" y="490" />
              <mxPoint x="185" y="490" />
            </Array>
          </mxGeometry>
        </mxCell>
        <mxCell id="8LqMRh5Xvni50Mecn4Er-47" style="edgeStyle=orthogonalEdgeStyle;rounded=0;orthogonalLoop=1;jettySize=auto;html=1;entryX=0.539;entryY=0.001;entryDx=0;entryDy=0;entryPerimeter=0;" parent="WIyWlLk6GJQsqaUBKTNV-1" source="8LqMRh5Xvni50Mecn4Er-16" target="JrVqD8_4iXmEu2Tj7kiI-32" edge="1">
          <mxGeometry relative="1" as="geometry">
            <Array as="points">
              <mxPoint x="513" y="410" />
              <mxPoint x="513" y="410" />
            </Array>
          </mxGeometry>
        </mxCell>
        <mxCell id="8LqMRh5Xvni50Mecn4Er-48" style="edgeStyle=orthogonalEdgeStyle;rounded=0;orthogonalLoop=1;jettySize=auto;html=1;entryX=0;entryY=0.5;entryDx=0;entryDy=0;" parent="WIyWlLk6GJQsqaUBKTNV-1" source="8LqMRh5Xvni50Mecn4Er-9" target="JrVqD8_4iXmEu2Tj7kiI-47" edge="1">
          <mxGeometry relative="1" as="geometry" />
        </mxCell>
        <mxCell id="8LqMRh5Xvni50Mecn4Er-49" style="edgeStyle=orthogonalEdgeStyle;rounded=0;orthogonalLoop=1;jettySize=auto;html=1;exitX=0;exitY=0.5;exitDx=0;exitDy=0;entryX=1;entryY=0.5;entryDx=0;entryDy=0;" parent="WIyWlLk6GJQsqaUBKTNV-1" source="JrVqD8_4iXmEu2Tj7kiI-15" target="JrVqD8_4iXmEu2Tj7kiI-38" edge="1">
          <mxGeometry relative="1" as="geometry" />
        </mxCell>
        <mxCell id="8LqMRh5Xvni50Mecn4Er-54" style="edgeStyle=orthogonalEdgeStyle;rounded=0;orthogonalLoop=1;jettySize=auto;html=1;exitX=0;exitY=0.5;exitDx=0;exitDy=0;" parent="WIyWlLk6GJQsqaUBKTNV-1" source="8LqMRh5Xvni50Mecn4Er-24" edge="1">
          <mxGeometry relative="1" as="geometry">
            <mxPoint x="650" y="890" as="targetPoint" />
          </mxGeometry>
        </mxCell>
        <mxCell id="8LqMRh5Xvni50Mecn4Er-59" style="edgeStyle=orthogonalEdgeStyle;rounded=0;orthogonalLoop=1;jettySize=auto;html=1;exitX=0;exitY=0.5;exitDx=0;exitDy=0;entryX=1.02;entryY=0.099;entryDx=0;entryDy=0;entryPerimeter=0;" parent="WIyWlLk6GJQsqaUBKTNV-1" source="8LqMRh5Xvni50Mecn4Er-20" target="JrVqD8_4iXmEu2Tj7kiI-27" edge="1">
          <mxGeometry relative="1" as="geometry">
            <Array as="points">
              <mxPoint x="360" y="353" />
              <mxPoint x="360" y="623" />
            </Array>
          </mxGeometry>
        </mxCell>
        <mxCell id="8LqMRh5Xvni50Mecn4Er-62" value="N" style="text;html=1;align=center;verticalAlign=middle;whiteSpace=wrap;rounded=0;" parent="WIyWlLk6GJQsqaUBKTNV-1" vertex="1">
          <mxGeometry x="300" y="650" width="30" height="20" as="geometry" />
        </mxCell>
        <mxCell id="9InwrJi6JerVY7e5sxzL-2" value="Tema" style="swimlane;fontStyle=0;childLayout=stackLayout;horizontal=1;startSize=30;horizontalStack=0;resizeParent=1;resizeParentMax=0;resizeLast=0;collapsible=1;marginBottom=0;whiteSpace=wrap;html=1;" vertex="1" parent="WIyWlLk6GJQsqaUBKTNV-1">
          <mxGeometry x="970" y="40" width="180" height="90" as="geometry" />
        </mxCell>
        <mxCell id="9InwrJi6JerVY7e5sxzL-3" value="int TemaID" style="text;strokeColor=none;fillColor=none;align=left;verticalAlign=middle;spacingLeft=4;spacingRight=4;overflow=hidden;points=[[0,0.5],[1,0.5]];portConstraint=eastwest;rotatable=0;whiteSpace=wrap;html=1;" vertex="1" parent="9InwrJi6JerVY7e5sxzL-2">
          <mxGeometry y="30" width="180" height="30" as="geometry" />
        </mxCell>
        <mxCell id="9InwrJi6JerVY7e5sxzL-4" value="string Naziv" style="text;strokeColor=none;fillColor=none;align=left;verticalAlign=middle;spacingLeft=4;spacingRight=4;overflow=hidden;points=[[0,0.5],[1,0.5]];portConstraint=eastwest;rotatable=0;whiteSpace=wrap;html=1;" vertex="1" parent="9InwrJi6JerVY7e5sxzL-2">
          <mxGeometry y="60" width="180" height="30" as="geometry" />
        </mxCell>
        <mxCell id="9InwrJi6JerVY7e5sxzL-5" style="edgeStyle=orthogonalEdgeStyle;rounded=0;orthogonalLoop=1;jettySize=auto;html=1;exitX=0;exitY=0.5;exitDx=0;exitDy=0;entryX=1;entryY=0.25;entryDx=0;entryDy=0;" edge="1" parent="WIyWlLk6GJQsqaUBKTNV-1" source="9InwrJi6JerVY7e5sxzL-3" target="JrVqD8_4iXmEu2Tj7kiI-14">
          <mxGeometry relative="1" as="geometry" />
        </mxCell>
        <mxCell id="9InwrJi6JerVY7e5sxzL-6" value="1" style="text;html=1;align=center;verticalAlign=middle;whiteSpace=wrap;rounded=0;" vertex="1" parent="WIyWlLk6GJQsqaUBKTNV-1">
          <mxGeometry x="950" y="70" width="30" height="20" as="geometry" />
        </mxCell>
        <mxCell id="9InwrJi6JerVY7e5sxzL-8" value="N" style="text;html=1;align=center;verticalAlign=middle;whiteSpace=wrap;rounded=0;" vertex="1" parent="WIyWlLk6GJQsqaUBKTNV-1">
          <mxGeometry x="880" y="120" width="30" height="20" as="geometry" />
        </mxCell>
      </root>
    </mxGraphModel>
  </diagram>
</mxfile>
